<svg width="502" height="431" viewBox="0 0 502 431" fill="none" xmlns="http://www.w3.org/2000/svg">
<path d="M245.483 226.727C249.025 226.727 251.896 223.856 251.896 220.315C251.896 216.773 249.025 213.902 245.483 213.902C241.942 213.902 239.071 216.773 239.071 220.315C239.071 223.856 241.942 226.727 245.483 226.727Z" fill="#61DAFB"/>
<path d="M245.484 243.898C250.517 248.793 255.482 251.69 259.482 251.69C260.792 251.69 262.033 251.414 263.067 250.793C266.653 248.724 267.963 243.553 266.722 236.174C266.515 234.864 266.239 233.554 265.895 232.175C267.274 231.761 268.515 231.348 269.756 230.934C276.721 228.245 280.582 224.521 280.582 220.452C280.582 216.315 276.721 212.591 269.756 209.971C268.515 209.488 267.274 209.075 265.895 208.73C266.239 207.351 266.515 206.041 266.722 204.73C267.894 197.214 266.584 191.974 262.998 189.905C261.964 189.284 260.723 189.009 259.413 189.009C255.482 189.009 250.448 191.905 245.415 196.801C240.45 191.905 235.485 189.009 231.485 189.009C230.175 189.009 228.934 189.284 227.9 189.905C224.314 191.974 223.004 197.145 224.245 204.524C224.452 205.834 224.728 207.144 225.073 208.523C223.693 208.937 222.452 209.351 221.211 209.764C214.246 212.454 210.385 216.177 210.385 220.246C210.385 224.383 214.246 228.107 221.211 230.727C222.452 231.21 223.693 231.623 225.073 231.968C224.728 233.347 224.452 234.657 224.245 235.968C223.073 243.346 224.383 248.587 227.9 250.586C228.934 251.207 230.175 251.483 231.485 251.483C235.485 251.621 240.45 248.724 245.484 243.898ZM241.622 234.588C242.863 234.657 244.173 234.657 245.484 234.657C246.794 234.657 248.104 234.657 249.345 234.588C248.104 236.243 246.794 237.76 245.484 239.209C244.173 237.76 242.863 236.243 241.622 234.588ZM233.071 227.486C233.761 228.658 234.382 229.762 235.14 230.865C233.002 230.589 231.003 230.244 229.072 229.83C229.693 227.969 230.382 226.038 231.21 224.107C231.761 225.21 232.382 226.383 233.071 227.486ZM229.072 210.868C231.003 210.454 233.002 210.109 235.14 209.833C234.451 210.937 233.761 212.04 233.071 213.212C232.382 214.384 231.761 215.488 231.21 216.66C230.313 214.66 229.624 212.729 229.072 210.868ZM232.865 220.315C233.761 218.453 234.726 216.591 235.83 214.729C236.864 212.936 238.036 211.143 239.209 209.351C241.277 209.213 243.346 209.144 245.484 209.144C247.69 209.144 249.759 209.213 251.759 209.351C253 211.143 254.103 212.936 255.137 214.729C256.241 216.591 257.206 218.453 258.102 220.315C257.206 222.176 256.241 224.038 255.137 225.9C254.103 227.693 252.931 229.486 251.759 231.279C249.69 231.416 247.621 231.485 245.484 231.485C243.277 231.485 241.208 231.416 239.209 231.279C237.967 229.486 236.864 227.693 235.83 225.9C234.726 224.038 233.761 222.176 232.865 220.315ZM259.826 216.591L257.965 213.143C257.275 211.971 256.654 210.868 255.896 209.764C258.034 210.04 260.033 210.385 261.964 210.799C261.343 212.729 260.654 214.66 259.826 216.591ZM259.826 224.038C260.654 225.969 261.343 227.9 261.964 229.762C260.033 230.175 258.034 230.52 255.896 230.796C256.585 229.693 257.275 228.589 257.965 227.417C258.585 226.383 259.206 225.21 259.826 224.038ZM261.412 247.966C260.861 248.311 260.171 248.449 259.413 248.449C256.034 248.449 251.827 245.69 247.69 241.553C249.69 239.415 251.621 237.002 253.551 234.313C256.792 234.037 259.895 233.554 262.791 232.865C263.136 234.106 263.343 235.347 263.55 236.588C264.515 242.449 263.757 246.656 261.412 247.966ZM264.998 211.626C272.721 213.833 277.341 217.212 277.341 220.315C277.341 223.004 274.169 225.693 268.584 227.831C267.48 228.245 266.239 228.658 264.998 229.003C264.102 226.176 262.998 223.28 261.619 220.315C262.998 217.349 264.171 214.453 264.998 211.626ZM259.482 192.18C260.24 192.18 260.861 192.318 261.481 192.663C263.757 193.973 264.584 198.111 263.619 204.041C263.412 205.213 263.136 206.454 262.86 207.765C259.964 207.144 256.861 206.661 253.62 206.316C251.759 203.627 249.759 201.214 247.759 199.076C251.896 195.008 256.103 192.18 259.482 192.18ZM249.345 206.041C248.104 205.972 246.794 205.972 245.484 205.972C244.173 205.972 242.863 205.972 241.622 206.041C242.863 204.386 244.173 202.869 245.484 201.421C246.794 202.869 248.104 204.455 249.345 206.041ZM229.555 192.663C230.106 192.318 230.796 192.18 231.554 192.18C234.933 192.18 239.14 194.939 243.277 199.076C241.277 201.214 239.346 203.627 237.416 206.316C234.175 206.592 231.072 207.075 228.176 207.765C227.831 206.523 227.624 205.282 227.417 204.041C226.452 198.18 227.21 194.042 229.555 192.663ZM225.969 229.003C218.246 226.796 213.626 223.418 213.626 220.315C213.626 217.625 216.798 214.936 222.383 212.798C223.487 212.385 224.728 211.971 225.969 211.626C226.865 214.453 227.969 217.349 229.348 220.315C227.969 223.28 226.796 226.245 225.969 229.003ZM227.417 236.588C227.624 235.416 227.9 234.175 228.176 232.865C231.072 233.485 234.175 233.968 237.416 234.313C239.277 237.002 241.277 239.415 243.277 241.553C239.14 245.621 234.933 248.449 231.554 248.449C230.796 248.449 230.175 248.311 229.555 247.966C227.21 246.656 226.452 242.449 227.417 236.588ZM224.521 264.998C226.038 263.136 226.107 261.068 225.279 258.999C224.452 256.93 222.728 255.965 220.59 255.896C218.039 255.827 215.419 255.896 212.867 255.896H212.385V273.755H214.453V266.998H217.694C218.108 266.998 218.453 267.136 218.66 267.48L222.797 273.893C222.866 274.031 223.073 274.238 223.211 274.238H225.9C224.245 271.687 222.659 269.273 221.004 266.791C222.452 266.584 223.693 266.101 224.521 264.998ZM214.453 264.86V258.034H215.212C216.798 258.034 218.453 257.965 220.039 258.102C221.901 258.171 223.211 259.62 223.211 261.481C223.211 263.343 221.694 264.791 219.832 264.86C218.177 264.929 216.522 264.86 214.453 264.86ZM241.139 265.757C240.036 260.93 235.623 259.688 232.244 261.206C229.624 262.378 228.451 264.653 228.382 267.48C228.313 269.618 228.934 271.549 230.589 272.997C232.451 274.652 234.726 274.859 237.071 274.445C238.381 274.169 239.553 273.549 240.45 272.583C240.105 272.101 239.76 271.618 239.415 271.204C237.485 272.859 235.347 273.411 233.002 272.307C231.485 271.549 230.727 269.687 230.589 268.308H241.277V267.412C241.346 266.791 241.277 266.239 241.139 265.757ZM230.727 266.86C230.52 264.791 232.589 262.585 234.864 262.585C237.485 262.516 239.14 264.102 239.209 266.86H230.727ZM251.896 260.861C250.862 260.654 249.759 260.585 248.724 260.654C247.07 260.792 245.621 261.55 244.449 262.791C244.794 263.274 245.07 263.757 245.484 264.309C245.621 264.171 245.759 264.033 245.897 263.964C247.001 262.929 248.311 262.378 249.897 262.516C251.138 262.585 252.31 262.998 252.655 264.24C252.931 265.205 252.862 266.239 252.931 267.274C252.724 267.274 252.655 267.205 252.586 267.136C250.931 265.757 249.069 265.481 247.07 265.963C245.208 266.446 244.035 267.894 243.898 269.756C243.76 271.894 244.725 273.48 246.587 274.238C247.759 274.721 249.069 274.721 250.31 274.445C251.276 274.238 251.69 273.687 253.069 272.928V273.824H254.999C254.999 271.066 255.068 267.687 254.999 264.515C254.999 262.516 253.827 261.274 251.896 260.861ZM252.862 269.549C252.793 269.756 252.862 269.963 252.862 270.17C252.862 271.618 252.517 272.101 251.138 272.652C250.173 272.997 249.138 273.135 248.104 272.79C246.932 272.445 246.104 271.411 246.104 270.239C246.035 269.066 246.794 267.894 247.966 267.549C249.552 266.998 251 267.343 252.31 268.308C252.724 268.653 253 268.998 252.862 269.549ZM263.619 262.723C265.412 262.171 267.067 262.516 268.308 264.033L268.515 264.171C268.998 263.757 269.411 263.343 269.963 262.86C269.756 262.654 269.687 262.516 269.549 262.309C267.549 260.171 263.619 259.895 261.205 261.619C257.827 264.102 257.896 268.929 259.551 271.48C261.137 273.893 263.412 274.721 266.101 274.376C267.687 274.169 268.998 273.411 270.032 272.101C269.549 271.687 269.066 271.273 268.584 270.79C268.446 270.928 268.377 270.997 268.308 271.135C266.446 273.204 263.343 272.997 261.688 270.79C260.723 269.48 260.516 267.963 260.792 266.446C260.93 264.722 261.826 263.343 263.619 262.723ZM277.962 272.101C277.824 272.17 277.755 272.238 277.755 272.238C277.203 272.652 276.652 272.721 276.031 272.514C275.41 272.238 275.341 271.687 275.273 271.135V263.274C275.273 263.136 275.273 263.412 275.341 262.723H277.962V260.654H275.204V257.206H273.135V260.93H271.342C271.204 260.93 270.997 261.068 270.997 261.206C270.928 261.688 270.997 262.033 270.997 262.723H273.204V271.549C273.204 272.652 273.48 273.618 274.445 274.169C275.479 274.79 277.479 274.652 278.376 273.893C278.513 273.824 278.582 273.549 278.582 273.48C278.376 273.066 278.169 272.583 277.962 272.101Z" fill="#61DAFB"/>
<path d="M422.218 207.006L466.35 162.736H493.518L435.871 220.384L422.218 207.006ZM466.35 251H493.518L470.004 227.486L493.518 203.489H466.35L442.836 227.21L466.35 251Z" fill="#3FB6D3"/>
<path d="M470.004 227.486L456.213 213.695L442.836 227.21L456.213 240.726L470.004 227.486Z" fill="#27AACD"/>
<path d="M493.518 251L470.004 227.486L456.213 240.726L466.35 251H493.518Z" fill="#19599A"/>
<path d="M456.213 240.726L477.452 234.933L470.004 227.486L456.213 240.726Z" fill="url(#paint0_linear_170504_1296)"/>
<path d="M342.022 340.643H419.253V417.874H342.022V340.643Z" fill="#F5DE19"/>
<path d="M393.902 400.979C394.561 402.315 395.583 403.438 396.852 404.219C398.121 404.999 399.584 405.406 401.073 405.393C404.08 405.393 406.002 403.889 406.002 401.807C406.002 399.324 404.027 398.436 400.717 396.988L398.902 396.21C393.662 393.979 390.186 391.185 390.186 385.277C390.186 379.835 394.324 375.689 400.814 375.689C402.915 375.538 405.014 376.008 406.849 377.042C408.685 378.075 410.175 379.626 411.135 381.501L405.462 385.128C405.092 384.198 404.448 383.403 403.616 382.847C402.784 382.292 401.803 382.002 400.803 382.016C400.366 381.973 399.926 382.02 399.509 382.157C399.092 382.293 398.708 382.514 398.381 382.807C398.054 383.099 397.792 383.457 397.611 383.857C397.43 384.256 397.335 384.689 397.33 385.128C397.33 387.304 398.679 388.187 401.793 389.541L403.608 390.319C409.775 392.964 413.262 395.659 413.262 401.719C413.262 408.253 408.129 411.833 401.236 411.833C398.55 412.002 395.873 411.392 393.527 410.075C391.18 408.758 389.265 406.791 388.01 404.411L393.902 400.979ZM368.264 401.608C369.403 403.63 370.44 405.34 372.934 405.34C375.317 405.34 376.823 404.408 376.823 400.781V376.103H384.08V400.877C384.08 408.391 379.666 411.811 373.242 411.811C370.972 411.935 368.717 411.369 366.774 410.188C364.83 409.006 363.29 407.264 362.356 405.191L368.264 401.608Z" fill="black"/>
<path d="M78.6099 353.055L84.1263 413.736L111.709 419.253L139.291 413.736L144.808 353.055H78.6099ZM133.002 372.363H98.6899L99.4898 380.637H132.202L129.99 406.386L111.681 410.978L93.3802 406.438L92.208 394.429H100.538L101.062 399.945L111.709 402.069L122.3 399.945L123.1 388.912H91.9598L89.6428 364.088H133.775L133.002 372.363Z" fill="#E65100"/>
<path d="M12.9734 235.914L6.04053 158.152H82.2232L75.2834 235.903L44.0856 244.552L12.9734 235.914Z" fill="#1572B6"/>
<path d="M44.1326 237.941L69.3422 230.952L75.2731 164.51H44.1326V237.941Z" fill="#33A9DC"/>
<path d="M44.1326 192.683H56.7529L57.6245 182.917H44.1326V173.38H68.0479L67.819 175.939L65.4745 202.22H44.1326V192.683Z" fill="white"/>
<path d="M44.189 217.452L44.147 217.465L33.5257 214.597L32.8465 206.99H23.274L24.6097 221.965L44.1456 227.387L44.189 227.375V217.452Z" fill="#EBEBEB"/>
<path d="M55.942 201.817L54.7932 214.589L44.156 217.46V227.383L63.7078 221.965L63.8512 220.353L65.5103 201.817H55.942Z" fill="white"/>
<path d="M44.1649 173.38V182.917H21.1281L20.9371 180.774L20.5027 175.939L20.2744 173.38H44.1649ZM44.1325 192.685V202.222H33.645L33.454 200.079L33.0189 195.244L32.7913 192.685H44.1325Z" fill="#EBEBEB"/>
<path d="M221.947 10.9447V77.319H288.328V77.2087L271.86 60.6188L255.384 44.0142L271.86 27.4096L288.199 10.9447H221.947Z" fill="url(#paint1_linear_170504_1296)"/>
<defs>
<linearGradient id="paint0_linear_170504_1296" x1="454.672" y1="242.974" x2="473.607" y2="231.278" gradientUnits="userSpaceOnUse">
<stop stop-color="#1B4E94"/>
<stop offset="0.63" stop-color="#1A5497"/>
<stop offset="1" stop-color="#195A9B"/>
</linearGradient>
<linearGradient id="paint1_linear_170504_1296" x1="221.475" y1="78.6237" x2="288.687" y2="10.663" gradientUnits="userSpaceOnUse">
<stop stop-color="#7C4DFF"/>
<stop offset="0.5" stop-color="#D500F9"/>
<stop offset="1" stop-color="#EF5350"/>
</linearGradient>
</defs>
</svg>
